<mxfile host="app.diagrams.net" modified="2024-03-15T00:55:28.616Z" agent="Mozilla/5.0 (Windows NT 10.0; Win64; x64) AppleWebKit/537.36 (KHTML, like Gecko) Chrome/122.0.0.0 Safari/537.36" etag="OTeFT3L9nuE1LfyTuDUU" version="24.0.6" type="device">
  <diagram id="eiVRtu8HK3JhSKBd8sSP" name="PÃ¡gina-1">
    <mxGraphModel dx="794" dy="446" grid="1" gridSize="10" guides="1" tooltips="1" connect="1" arrows="1" fold="1" page="1" pageScale="1" pageWidth="827" pageHeight="1169" math="0" shadow="0">
      <root>
        <mxCell id="0" />
        <mxCell id="1" parent="0" />
        <mxCell id="uTKjZcE17T1s7YBnKnHM-152" value="" style="rounded=0;whiteSpace=wrap;html=1;" parent="1" vertex="1">
          <mxGeometry x="473.63" y="190" width="90" height="80" as="geometry" />
        </mxCell>
        <mxCell id="uTKjZcE17T1s7YBnKnHM-46" value="" style="rounded=0;whiteSpace=wrap;html=1;" parent="1" vertex="1">
          <mxGeometry x="348.5" y="10" width="90" height="80" as="geometry" />
        </mxCell>
        <mxCell id="uTKjZcE17T1s7YBnKnHM-2" value="Escrito" style="rhombus;whiteSpace=wrap;html=1;" parent="1" vertex="1">
          <mxGeometry x="352" y="10" width="86.5" height="80" as="geometry" />
        </mxCell>
        <mxCell id="uTKjZcE17T1s7YBnKnHM-3" value="Autor" style="rounded=0;whiteSpace=wrap;html=1;" parent="1" vertex="1">
          <mxGeometry x="568.5" y="10" width="140" height="70" as="geometry" />
        </mxCell>
        <mxCell id="uTKjZcE17T1s7YBnKnHM-4" value="" style="endArrow=none;html=1;rounded=0;" parent="1" edge="1">
          <mxGeometry width="50" height="50" relative="1" as="geometry">
            <mxPoint x="272.5" y="49.5" as="sourcePoint" />
            <mxPoint x="352.5" y="49.5" as="targetPoint" />
            <Array as="points">
              <mxPoint x="208.5" y="50" />
              <mxPoint x="282.5" y="49.5" />
            </Array>
          </mxGeometry>
        </mxCell>
        <mxCell id="uTKjZcE17T1s7YBnKnHM-6" value="Livro" style="rounded=0;whiteSpace=wrap;html=1;" parent="1" vertex="1">
          <mxGeometry x="68.5" y="15" width="140" height="70" as="geometry" />
        </mxCell>
        <mxCell id="uTKjZcE17T1s7YBnKnHM-7" value="" style="endArrow=none;html=1;rounded=0;" parent="1" edge="1">
          <mxGeometry width="50" height="50" relative="1" as="geometry">
            <mxPoint x="492.5" y="49.5" as="sourcePoint" />
            <mxPoint x="568.5" y="50" as="targetPoint" />
            <Array as="points">
              <mxPoint x="438.5" y="50" />
              <mxPoint x="502.5" y="49.5" />
            </Array>
          </mxGeometry>
        </mxCell>
        <mxCell id="uTKjZcE17T1s7YBnKnHM-10" value="" style="line;strokeWidth=4;html=1;perimeter=backbonePerimeter;points=[];outlineConnect=0;rotation=90;" parent="1" vertex="1">
          <mxGeometry x="341" y="97.5" width="25" height="10" as="geometry" />
        </mxCell>
        <mxCell id="uTKjZcE17T1s7YBnKnHM-11" value="" style="shape=waypoint;sketch=0;fillStyle=solid;size=6;pointerEvents=1;points=[];fillColor=none;resizable=0;rotatable=0;perimeter=centerPerimeter;snapToPoint=1;" parent="1" vertex="1">
          <mxGeometry x="343.5" y="110" width="20" height="20" as="geometry" />
        </mxCell>
        <mxCell id="uTKjZcE17T1s7YBnKnHM-12" value="id_autor" style="text;html=1;align=center;verticalAlign=middle;resizable=0;points=[];autosize=1;strokeColor=none;fillColor=none;" parent="1" vertex="1">
          <mxGeometry x="398.5" y="120" width="70" height="30" as="geometry" />
        </mxCell>
        <mxCell id="uTKjZcE17T1s7YBnKnHM-13" value="" style="line;strokeWidth=4;html=1;perimeter=backbonePerimeter;points=[];outlineConnect=0;rotation=90;" parent="1" vertex="1">
          <mxGeometry x="416" y="97.5" width="25" height="10" as="geometry" />
        </mxCell>
        <mxCell id="uTKjZcE17T1s7YBnKnHM-14" value="" style="shape=waypoint;sketch=0;fillStyle=solid;size=6;pointerEvents=1;points=[];fillColor=none;resizable=0;rotatable=0;perimeter=centerPerimeter;snapToPoint=1;" parent="1" vertex="1">
          <mxGeometry x="418.5" y="110" width="20" height="20" as="geometry" />
        </mxCell>
        <mxCell id="uTKjZcE17T1s7YBnKnHM-16" value="" style="line;strokeWidth=4;html=1;perimeter=backbonePerimeter;points=[];outlineConnect=0;rotation=90;" parent="1" vertex="1">
          <mxGeometry x="68.5" y="95" width="40" height="20" as="geometry" />
        </mxCell>
        <mxCell id="uTKjZcE17T1s7YBnKnHM-17" value="" style="line;strokeWidth=4;html=1;perimeter=backbonePerimeter;points=[];outlineConnect=0;rotation=90;" parent="1" vertex="1">
          <mxGeometry x="98.5" y="100" width="40" height="10" as="geometry" />
        </mxCell>
        <mxCell id="uTKjZcE17T1s7YBnKnHM-18" value="" style="line;strokeWidth=4;html=1;perimeter=backbonePerimeter;points=[];outlineConnect=0;rotation=90;" parent="1" vertex="1">
          <mxGeometry x="148.5" y="100" width="40" height="10" as="geometry" />
        </mxCell>
        <mxCell id="uTKjZcE17T1s7YBnKnHM-19" value="" style="line;strokeWidth=4;html=1;perimeter=backbonePerimeter;points=[];outlineConnect=0;rotation=90;" parent="1" vertex="1">
          <mxGeometry x="178.5" y="100" width="40" height="10" as="geometry" />
        </mxCell>
        <mxCell id="uTKjZcE17T1s7YBnKnHM-20" value="" style="shape=waypoint;sketch=0;fillStyle=solid;size=6;pointerEvents=1;points=[];fillColor=none;resizable=0;rotatable=0;perimeter=centerPerimeter;snapToPoint=1;" parent="1" vertex="1">
          <mxGeometry x="58.5" y="125" width="20" height="20" as="geometry" />
        </mxCell>
        <mxCell id="uTKjZcE17T1s7YBnKnHM-21" value="" style="shape=waypoint;sketch=0;fillStyle=solid;size=6;pointerEvents=1;points=[];fillColor=none;resizable=0;rotatable=0;perimeter=centerPerimeter;snapToPoint=1;" parent="1" vertex="1">
          <mxGeometry x="98.5" y="125" width="20" height="20" as="geometry" />
        </mxCell>
        <mxCell id="uTKjZcE17T1s7YBnKnHM-22" value="" style="shape=waypoint;sketch=0;fillStyle=solid;size=6;pointerEvents=1;points=[];fillColor=none;resizable=0;rotatable=0;perimeter=centerPerimeter;snapToPoint=1;" parent="1" vertex="1">
          <mxGeometry x="148.5" y="130" width="20" height="20" as="geometry" />
        </mxCell>
        <mxCell id="uTKjZcE17T1s7YBnKnHM-23" value="" style="shape=waypoint;sketch=0;fillStyle=solid;size=6;pointerEvents=1;points=[];fillColor=none;resizable=0;rotatable=0;perimeter=centerPerimeter;snapToPoint=1;" parent="1" vertex="1">
          <mxGeometry x="178.5" y="125" width="20" height="20" as="geometry" />
        </mxCell>
        <mxCell id="uTKjZcE17T1s7YBnKnHM-24" value="Titulo" style="text;html=1;align=center;verticalAlign=middle;resizable=0;points=[];autosize=1;strokeColor=none;fillColor=none;rotation=-89;" parent="1" vertex="1">
          <mxGeometry x="48.5" y="90" width="50" height="30" as="geometry" />
        </mxCell>
        <mxCell id="uTKjZcE17T1s7YBnKnHM-25" value="#ISBN" style="text;html=1;align=center;verticalAlign=middle;resizable=0;points=[];autosize=1;strokeColor=none;fillColor=none;rotation=-90;" parent="1" vertex="1">
          <mxGeometry x="78.5" y="90" width="60" height="30" as="geometry" />
        </mxCell>
        <mxCell id="uTKjZcE17T1s7YBnKnHM-26" value="Editora" style="text;html=1;align=center;verticalAlign=middle;resizable=0;points=[];autosize=1;strokeColor=none;fillColor=none;rotation=-90;" parent="1" vertex="1">
          <mxGeometry x="128.5" y="95" width="60" height="30" as="geometry" />
        </mxCell>
        <mxCell id="uTKjZcE17T1s7YBnKnHM-27" value="Data" style="text;html=1;align=center;verticalAlign=middle;resizable=0;points=[];autosize=1;strokeColor=none;fillColor=none;rotation=-89;" parent="1" vertex="1">
          <mxGeometry x="163.5" y="90" width="50" height="30" as="geometry" />
        </mxCell>
        <mxCell id="uTKjZcE17T1s7YBnKnHM-34" value="Nome" style="text;html=1;align=center;verticalAlign=middle;resizable=0;points=[];autosize=1;strokeColor=none;fillColor=none;rotation=-90;" parent="1" vertex="1">
          <mxGeometry x="643.5" y="85" width="60" height="30" as="geometry" />
        </mxCell>
        <mxCell id="uTKjZcE17T1s7YBnKnHM-36" value="" style="line;strokeWidth=4;html=1;perimeter=backbonePerimeter;points=[];outlineConnect=0;rotation=90;" parent="1" vertex="1">
          <mxGeometry x="668.5" y="95" width="40" height="10" as="geometry" />
        </mxCell>
        <mxCell id="uTKjZcE17T1s7YBnKnHM-37" value="" style="shape=waypoint;sketch=0;fillStyle=solid;size=6;pointerEvents=1;points=[];fillColor=none;resizable=0;rotatable=0;perimeter=centerPerimeter;snapToPoint=1;" parent="1" vertex="1">
          <mxGeometry x="663.5" y="120" width="20" height="20" as="geometry" />
        </mxCell>
        <mxCell id="uTKjZcE17T1s7YBnKnHM-41" value="" style="line;strokeWidth=4;html=1;perimeter=backbonePerimeter;points=[];outlineConnect=0;rotation=90;" parent="1" vertex="1">
          <mxGeometry x="598.5" y="115" width="80" height="10" as="geometry" />
        </mxCell>
        <mxCell id="uTKjZcE17T1s7YBnKnHM-42" value="" style="shape=waypoint;sketch=0;fillStyle=solid;size=6;pointerEvents=1;points=[];fillColor=none;resizable=0;rotatable=0;perimeter=centerPerimeter;snapToPoint=1;" parent="1" vertex="1">
          <mxGeometry x="598.5" y="165" width="20" height="20" as="geometry" />
        </mxCell>
        <mxCell id="uTKjZcE17T1s7YBnKnHM-43" value="id_autor" style="text;html=1;align=center;verticalAlign=middle;resizable=0;points=[];autosize=1;strokeColor=none;fillColor=none;" parent="1" vertex="1">
          <mxGeometry x="608.5" y="160" width="70" height="30" as="geometry" />
        </mxCell>
        <mxCell id="uTKjZcE17T1s7YBnKnHM-44" value="#ISBN" style="text;html=1;align=center;verticalAlign=middle;resizable=0;points=[];autosize=1;strokeColor=none;fillColor=none;rotation=0;" parent="1" vertex="1">
          <mxGeometry x="323.5" y="120" width="60" height="30" as="geometry" />
        </mxCell>
        <mxCell id="uTKjZcE17T1s7YBnKnHM-51" value="Turmas" style="rounded=0;whiteSpace=wrap;html=1;" parent="1" vertex="1">
          <mxGeometry x="308.63" y="200" width="110" height="50" as="geometry" />
        </mxCell>
        <mxCell id="uTKjZcE17T1s7YBnKnHM-52" value="Alunos" style="rounded=0;whiteSpace=wrap;html=1;" parent="1" vertex="1">
          <mxGeometry x="637.63" y="201.25" width="120" height="50" as="geometry" />
        </mxCell>
        <mxCell id="uTKjZcE17T1s7YBnKnHM-53" value="" style="endArrow=none;html=1;rounded=0;" parent="1" edge="1">
          <mxGeometry width="50" height="50" relative="1" as="geometry">
            <mxPoint x="418.63" y="230" as="sourcePoint" />
            <mxPoint x="422.63" y="230" as="targetPoint" />
            <Array as="points">
              <mxPoint x="478.63" y="230" />
            </Array>
          </mxGeometry>
        </mxCell>
        <mxCell id="uTKjZcE17T1s7YBnKnHM-54" value="Possui" style="rhombus;whiteSpace=wrap;html=1;" parent="1" vertex="1">
          <mxGeometry x="473.63" y="190" width="86.5" height="80" as="geometry" />
        </mxCell>
        <mxCell id="uTKjZcE17T1s7YBnKnHM-56" value="" style="endArrow=none;html=1;rounded=0;" parent="1" edge="1">
          <mxGeometry width="50" height="50" relative="1" as="geometry">
            <mxPoint x="561.63" y="229.5" as="sourcePoint" />
            <mxPoint x="637.63" y="230" as="targetPoint" />
            <Array as="points" />
          </mxGeometry>
        </mxCell>
        <mxCell id="uTKjZcE17T1s7YBnKnHM-57" value="" style="line;strokeWidth=4;html=1;perimeter=backbonePerimeter;points=[];outlineConnect=0;rotation=90;" parent="1" vertex="1">
          <mxGeometry x="466.13" y="278.75" width="25" height="10" as="geometry" />
        </mxCell>
        <mxCell id="uTKjZcE17T1s7YBnKnHM-58" value="" style="line;strokeWidth=4;html=1;perimeter=backbonePerimeter;points=[];outlineConnect=0;rotation=90;" parent="1" vertex="1">
          <mxGeometry x="535.13" y="277.5" width="25" height="10" as="geometry" />
        </mxCell>
        <mxCell id="uTKjZcE17T1s7YBnKnHM-59" value="id_turma(pk)" style="text;html=1;align=center;verticalAlign=middle;resizable=0;points=[];autosize=1;strokeColor=none;fillColor=none;" parent="1" vertex="1">
          <mxGeometry x="433.63" y="311.25" width="90" height="30" as="geometry" />
        </mxCell>
        <mxCell id="uTKjZcE17T1s7YBnKnHM-60" value="Professor" style="text;html=1;align=center;verticalAlign=middle;resizable=0;points=[];autosize=1;strokeColor=none;fillColor=none;" parent="1" vertex="1">
          <mxGeometry x="513.63" y="310" width="70" height="30" as="geometry" />
        </mxCell>
        <mxCell id="uTKjZcE17T1s7YBnKnHM-61" value="" style="shape=waypoint;sketch=0;fillStyle=solid;size=6;pointerEvents=1;points=[];fillColor=none;resizable=0;rotatable=0;perimeter=centerPerimeter;snapToPoint=1;" parent="1" vertex="1">
          <mxGeometry x="468.63" y="300" width="20" height="20" as="geometry" />
        </mxCell>
        <mxCell id="uTKjZcE17T1s7YBnKnHM-62" value="" style="shape=waypoint;sketch=0;fillStyle=solid;size=6;pointerEvents=1;points=[];fillColor=none;resizable=0;rotatable=0;perimeter=centerPerimeter;snapToPoint=1;" parent="1" vertex="1">
          <mxGeometry x="537.63" y="297.5" width="20" height="20" as="geometry" />
        </mxCell>
        <mxCell id="uTKjZcE17T1s7YBnKnHM-63" value="" style="line;strokeWidth=4;html=1;perimeter=backbonePerimeter;points=[];outlineConnect=0;rotation=90;" parent="1" vertex="1">
          <mxGeometry x="620.13" y="280" width="67.5" height="10" as="geometry" />
        </mxCell>
        <mxCell id="uTKjZcE17T1s7YBnKnHM-64" value="" style="line;strokeWidth=4;html=1;perimeter=backbonePerimeter;points=[];outlineConnect=0;rotation=90;" parent="1" vertex="1">
          <mxGeometry x="648.88" y="286.25" width="82.5" height="10" as="geometry" />
        </mxCell>
        <mxCell id="uTKjZcE17T1s7YBnKnHM-65" value="" style="line;strokeWidth=4;html=1;perimeter=backbonePerimeter;points=[];outlineConnect=0;rotation=90;" parent="1" vertex="1">
          <mxGeometry x="697.63" y="280" width="72.5" height="10" as="geometry" />
        </mxCell>
        <mxCell id="uTKjZcE17T1s7YBnKnHM-66" value="" style="shape=waypoint;sketch=0;fillStyle=solid;size=6;pointerEvents=1;points=[];fillColor=none;resizable=0;rotatable=0;perimeter=centerPerimeter;snapToPoint=1;" parent="1" vertex="1">
          <mxGeometry x="632.63" y="306.25" width="20" height="20" as="geometry" />
        </mxCell>
        <mxCell id="uTKjZcE17T1s7YBnKnHM-67" value="" style="shape=waypoint;sketch=0;fillStyle=solid;size=6;pointerEvents=1;points=[];fillColor=none;resizable=0;rotatable=0;perimeter=centerPerimeter;snapToPoint=1;" parent="1" vertex="1">
          <mxGeometry x="667.63" y="321.25" width="20" height="20" as="geometry" />
        </mxCell>
        <mxCell id="uTKjZcE17T1s7YBnKnHM-68" value="" style="shape=waypoint;sketch=0;fillStyle=solid;size=6;pointerEvents=1;points=[];fillColor=none;resizable=0;rotatable=0;perimeter=centerPerimeter;snapToPoint=1;" parent="1" vertex="1">
          <mxGeometry x="717.63" y="311.25" width="20" height="20" as="geometry" />
        </mxCell>
        <mxCell id="uTKjZcE17T1s7YBnKnHM-69" value="id_aluno" style="text;html=1;align=center;verticalAlign=middle;resizable=0;points=[];autosize=1;strokeColor=none;fillColor=none;rotation=-90;" parent="1" vertex="1">
          <mxGeometry x="607.63" y="265" width="70" height="30" as="geometry" />
        </mxCell>
        <mxCell id="uTKjZcE17T1s7YBnKnHM-70" value="nome_aluno" style="text;html=1;align=center;verticalAlign=middle;resizable=0;points=[];autosize=1;strokeColor=none;fillColor=none;rotation=-90;" parent="1" vertex="1">
          <mxGeometry x="632.63" y="273.75" width="90" height="30" as="geometry" />
        </mxCell>
        <mxCell id="uTKjZcE17T1s7YBnKnHM-71" value="data_nasc" style="text;html=1;align=center;verticalAlign=middle;resizable=0;points=[];autosize=1;strokeColor=none;fillColor=none;rotation=-90;" parent="1" vertex="1">
          <mxGeometry x="677.63" y="268.75" width="80" height="30" as="geometry" />
        </mxCell>
        <mxCell id="uTKjZcE17T1s7YBnKnHM-73" value="id_turma(pk)" style="text;html=1;align=center;verticalAlign=middle;resizable=0;points=[];autosize=1;strokeColor=none;fillColor=none;rotation=-90;" parent="1" vertex="1">
          <mxGeometry x="276.13" y="272.5" width="90" height="30" as="geometry" />
        </mxCell>
        <mxCell id="uTKjZcE17T1s7YBnKnHM-74" value="" style="line;strokeWidth=4;html=1;perimeter=backbonePerimeter;points=[];outlineConnect=0;rotation=90;" parent="1" vertex="1">
          <mxGeometry x="298.63" y="280" width="67.5" height="10" as="geometry" />
        </mxCell>
        <mxCell id="uTKjZcE17T1s7YBnKnHM-76" value="Professor" style="text;html=1;align=center;verticalAlign=middle;resizable=0;points=[];autosize=1;strokeColor=none;fillColor=none;rotation=-90;" parent="1" vertex="1">
          <mxGeometry x="362.13" y="267.5" width="70" height="30" as="geometry" />
        </mxCell>
        <mxCell id="uTKjZcE17T1s7YBnKnHM-77" value="" style="line;strokeWidth=4;html=1;perimeter=backbonePerimeter;points=[];outlineConnect=0;rotation=90;" parent="1" vertex="1">
          <mxGeometry x="378.63" y="278.75" width="65" height="10" as="geometry" />
        </mxCell>
        <mxCell id="uTKjZcE17T1s7YBnKnHM-78" value="" style="shape=waypoint;sketch=0;fillStyle=solid;size=6;pointerEvents=1;points=[];fillColor=none;resizable=0;rotatable=0;perimeter=centerPerimeter;snapToPoint=1;" parent="1" vertex="1">
          <mxGeometry x="387.13" y="305" width="20" height="20" as="geometry" />
        </mxCell>
        <mxCell id="uTKjZcE17T1s7YBnKnHM-128" value="Possui" style="rhombus;whiteSpace=wrap;html=1;" parent="1" vertex="1">
          <mxGeometry x="173.63" y="190" width="75" height="72.5" as="geometry" />
        </mxCell>
        <mxCell id="uTKjZcE17T1s7YBnKnHM-130" value="" style="endArrow=none;html=1;rounded=0;" parent="1" edge="1">
          <mxGeometry width="50" height="50" relative="1" as="geometry">
            <mxPoint x="248.63" y="225.75" as="sourcePoint" />
            <mxPoint x="252.63" y="225.75" as="targetPoint" />
            <Array as="points">
              <mxPoint x="308.63" y="225.75" />
            </Array>
          </mxGeometry>
        </mxCell>
        <mxCell id="uTKjZcE17T1s7YBnKnHM-139" value="" style="edgeStyle=orthogonalEdgeStyle;rounded=0;orthogonalLoop=1;jettySize=auto;html=1;" parent="1" source="uTKjZcE17T1s7YBnKnHM-131" target="uTKjZcE17T1s7YBnKnHM-128" edge="1">
          <mxGeometry relative="1" as="geometry" />
        </mxCell>
        <mxCell id="uTKjZcE17T1s7YBnKnHM-131" value="Cursos" style="rounded=0;whiteSpace=wrap;html=1;" parent="1" vertex="1">
          <mxGeometry x="23.630000000000003" y="205" width="95" height="42.5" as="geometry" />
        </mxCell>
        <mxCell id="uTKjZcE17T1s7YBnKnHM-140" value="" style="shape=waypoint;sketch=0;fillStyle=solid;size=6;pointerEvents=1;points=[];fillColor=none;resizable=0;rotatable=0;perimeter=centerPerimeter;snapToPoint=1;" parent="1" vertex="1">
          <mxGeometry x="311.13" y="320" width="20" height="20" as="geometry" />
        </mxCell>
        <mxCell id="uTKjZcE17T1s7YBnKnHM-142" value="#id_curso(fk)" style="text;html=1;align=center;verticalAlign=middle;resizable=0;points=[];autosize=1;strokeColor=none;fillColor=none;rotation=-90;" parent="1" vertex="1">
          <mxGeometry x="308.63" y="272.5" width="90" height="30" as="geometry" />
        </mxCell>
        <mxCell id="uTKjZcE17T1s7YBnKnHM-143" value="" style="line;strokeWidth=4;html=1;perimeter=backbonePerimeter;points=[];outlineConnect=0;rotation=90;" parent="1" vertex="1">
          <mxGeometry x="331.13" y="278.75" width="67.5" height="10" as="geometry" />
        </mxCell>
        <mxCell id="uTKjZcE17T1s7YBnKnHM-144" value="" style="shape=waypoint;sketch=0;fillStyle=solid;size=6;pointerEvents=1;points=[];fillColor=none;resizable=0;rotatable=0;perimeter=centerPerimeter;snapToPoint=1;" parent="1" vertex="1">
          <mxGeometry x="346.13" y="320" width="20" height="20" as="geometry" />
        </mxCell>
        <mxCell id="uTKjZcE17T1s7YBnKnHM-145" value="" style="line;strokeWidth=4;html=1;perimeter=backbonePerimeter;points=[];outlineConnect=0;rotation=90;" parent="1" vertex="1">
          <mxGeometry x="12.380000000000003" y="275" width="70" height="10" as="geometry" />
        </mxCell>
        <mxCell id="uTKjZcE17T1s7YBnKnHM-146" value="#id_curso(fk)" style="text;html=1;align=center;verticalAlign=middle;resizable=0;points=[];autosize=1;strokeColor=none;fillColor=none;rotation=-90;" parent="1" vertex="1">
          <mxGeometry x="-7.619999999999997" y="271.25" width="90" height="30" as="geometry" />
        </mxCell>
        <mxCell id="uTKjZcE17T1s7YBnKnHM-147" value="" style="shape=waypoint;sketch=0;fillStyle=solid;size=6;pointerEvents=1;points=[];fillColor=none;resizable=0;rotatable=0;perimeter=centerPerimeter;snapToPoint=1;" parent="1" vertex="1">
          <mxGeometry x="27.380000000000003" y="321.25" width="20" height="20" as="geometry" />
        </mxCell>
        <mxCell id="uTKjZcE17T1s7YBnKnHM-148" value="nome_curso" style="text;html=1;align=center;verticalAlign=middle;resizable=0;points=[];autosize=1;strokeColor=none;fillColor=none;rotation=-90;" parent="1" vertex="1">
          <mxGeometry x="43.63" y="268.75" width="90" height="30" as="geometry" />
        </mxCell>
        <mxCell id="uTKjZcE17T1s7YBnKnHM-149" value="" style="line;strokeWidth=4;html=1;perimeter=backbonePerimeter;points=[];outlineConnect=0;rotation=90;" parent="1" vertex="1">
          <mxGeometry x="66.13" y="276.25" width="67.5" height="10" as="geometry" />
        </mxCell>
        <mxCell id="uTKjZcE17T1s7YBnKnHM-150" value="" style="shape=waypoint;sketch=0;fillStyle=solid;size=6;pointerEvents=1;points=[];fillColor=none;resizable=0;rotatable=0;perimeter=centerPerimeter;snapToPoint=1;" parent="1" vertex="1">
          <mxGeometry x="78.63" y="311.25" width="20" height="20" as="geometry" />
        </mxCell>
        <mxCell id="lg2mbPAJ2WqfPmgQV9Hu-33" style="edgeStyle=orthogonalEdgeStyle;rounded=0;orthogonalLoop=1;jettySize=auto;html=1;exitX=1;exitY=0.5;exitDx=0;exitDy=0;" parent="1" source="lg2mbPAJ2WqfPmgQV9Hu-1" target="lg2mbPAJ2WqfPmgQV9Hu-22" edge="1">
          <mxGeometry relative="1" as="geometry" />
        </mxCell>
        <mxCell id="lg2mbPAJ2WqfPmgQV9Hu-1" value="Realizado" style="rounded=0;whiteSpace=wrap;html=1;" parent="1" vertex="1">
          <mxGeometry x="335.13" y="360" width="104.87" height="50" as="geometry" />
        </mxCell>
        <mxCell id="lg2mbPAJ2WqfPmgQV9Hu-2" value="id_projeto(pk)" style="text;html=1;align=center;verticalAlign=middle;resizable=0;points=[];autosize=1;strokeColor=none;fillColor=none;rotation=-90;" parent="1" vertex="1">
          <mxGeometry x="296.13" y="435" width="100" height="30" as="geometry" />
        </mxCell>
        <mxCell id="lg2mbPAJ2WqfPmgQV9Hu-3" value="" style="line;strokeWidth=4;html=1;perimeter=backbonePerimeter;points=[];outlineConnect=0;rotation=90;" parent="1" vertex="1">
          <mxGeometry x="323.63" y="442.5" width="67.5" height="10" as="geometry" />
        </mxCell>
        <mxCell id="lg2mbPAJ2WqfPmgQV9Hu-4" value="Data" style="text;html=1;align=center;verticalAlign=middle;resizable=0;points=[];autosize=1;strokeColor=none;fillColor=none;rotation=-90;" parent="1" vertex="1">
          <mxGeometry x="397.13" y="430" width="50" height="30" as="geometry" />
        </mxCell>
        <mxCell id="lg2mbPAJ2WqfPmgQV9Hu-5" value="" style="line;strokeWidth=4;html=1;perimeter=backbonePerimeter;points=[];outlineConnect=0;rotation=90;" parent="1" vertex="1">
          <mxGeometry x="403.63" y="441.25" width="65" height="10" as="geometry" />
        </mxCell>
        <mxCell id="lg2mbPAJ2WqfPmgQV9Hu-6" value="" style="shape=waypoint;sketch=0;fillStyle=solid;size=6;pointerEvents=1;points=[];fillColor=none;resizable=0;rotatable=0;perimeter=centerPerimeter;snapToPoint=1;" parent="1" vertex="1">
          <mxGeometry x="412.13" y="467.5" width="20" height="20" as="geometry" />
        </mxCell>
        <mxCell id="lg2mbPAJ2WqfPmgQV9Hu-7" value="" style="shape=waypoint;sketch=0;fillStyle=solid;size=6;pointerEvents=1;points=[];fillColor=none;resizable=0;rotatable=0;perimeter=centerPerimeter;snapToPoint=1;" parent="1" vertex="1">
          <mxGeometry x="336.13" y="482.5" width="20" height="20" as="geometry" />
        </mxCell>
        <mxCell id="lg2mbPAJ2WqfPmgQV9Hu-8" value="#id_funcionario(fk)" style="text;html=1;align=center;verticalAlign=middle;resizable=0;points=[];autosize=1;strokeColor=none;fillColor=none;rotation=-90;" parent="1" vertex="1">
          <mxGeometry x="320.63" y="451.25" width="120" height="30" as="geometry" />
        </mxCell>
        <mxCell id="lg2mbPAJ2WqfPmgQV9Hu-9" value="" style="line;strokeWidth=4;html=1;perimeter=backbonePerimeter;points=[];outlineConnect=0;rotation=90;" parent="1" vertex="1">
          <mxGeometry x="356.13" y="441.25" width="67.5" height="10" as="geometry" />
        </mxCell>
        <mxCell id="lg2mbPAJ2WqfPmgQV9Hu-10" value="" style="shape=waypoint;sketch=0;fillStyle=solid;size=6;pointerEvents=1;points=[];fillColor=none;resizable=0;rotatable=0;perimeter=centerPerimeter;snapToPoint=1;" parent="1" vertex="1">
          <mxGeometry x="371.13" y="510" width="20" height="20" as="geometry" />
        </mxCell>
        <mxCell id="lg2mbPAJ2WqfPmgQV9Hu-11" value="" style="edgeStyle=orthogonalEdgeStyle;rounded=0;orthogonalLoop=1;jettySize=auto;html=1;" parent="1" source="lg2mbPAJ2WqfPmgQV9Hu-12" edge="1">
          <mxGeometry relative="1" as="geometry">
            <mxPoint x="332.13" y="382.25" as="targetPoint" />
          </mxGeometry>
        </mxCell>
        <mxCell id="lg2mbPAJ2WqfPmgQV9Hu-12" value="Cursos" style="rounded=0;whiteSpace=wrap;html=1;" parent="1" vertex="1">
          <mxGeometry x="182.13" y="361" width="95" height="42.5" as="geometry" />
        </mxCell>
        <mxCell id="lg2mbPAJ2WqfPmgQV9Hu-13" value="" style="line;strokeWidth=4;html=1;perimeter=backbonePerimeter;points=[];outlineConnect=0;rotation=90;" parent="1" vertex="1">
          <mxGeometry x="170.88" y="431" width="70" height="10" as="geometry" />
        </mxCell>
        <mxCell id="lg2mbPAJ2WqfPmgQV9Hu-14" value="#id_projeto(fk)" style="text;html=1;align=center;verticalAlign=middle;resizable=0;points=[];autosize=1;strokeColor=none;fillColor=none;rotation=-90;" parent="1" vertex="1">
          <mxGeometry x="145.88" y="427.25" width="100" height="30" as="geometry" />
        </mxCell>
        <mxCell id="lg2mbPAJ2WqfPmgQV9Hu-16" value="" style="line;strokeWidth=4;html=1;perimeter=backbonePerimeter;points=[];outlineConnect=0;rotation=90;" parent="1" vertex="1">
          <mxGeometry x="224.63" y="432.25" width="67.5" height="10" as="geometry" />
        </mxCell>
        <mxCell id="lg2mbPAJ2WqfPmgQV9Hu-17" value="" style="shape=waypoint;sketch=0;fillStyle=solid;size=6;pointerEvents=1;points=[];fillColor=none;resizable=0;rotatable=0;perimeter=centerPerimeter;snapToPoint=1;" parent="1" vertex="1">
          <mxGeometry x="237.13" y="467.25" width="20" height="20" as="geometry" />
        </mxCell>
        <mxCell id="lg2mbPAJ2WqfPmgQV9Hu-18" value="nome&lt;div&gt;&lt;br&gt;&lt;/div&gt;" style="text;html=1;align=center;verticalAlign=middle;resizable=0;points=[];autosize=1;strokeColor=none;fillColor=none;rotation=-90;" parent="1" vertex="1">
          <mxGeometry x="204.63" y="417.25" width="50" height="40" as="geometry" />
        </mxCell>
        <mxCell id="lg2mbPAJ2WqfPmgQV9Hu-19" value="" style="line;strokeWidth=4;html=1;perimeter=backbonePerimeter;points=[];outlineConnect=0;rotation=90;" parent="1" vertex="1">
          <mxGeometry x="198.5" y="430" width="67.5" height="10" as="geometry" />
        </mxCell>
        <mxCell id="lg2mbPAJ2WqfPmgQV9Hu-20" value="" style="shape=waypoint;sketch=0;fillStyle=solid;size=6;pointerEvents=1;points=[];fillColor=none;resizable=0;rotatable=0;perimeter=centerPerimeter;snapToPoint=1;" parent="1" vertex="1">
          <mxGeometry x="213.5" y="460" width="20" height="20" as="geometry" />
        </mxCell>
        <mxCell id="lg2mbPAJ2WqfPmgQV9Hu-21" value="DescriÃ§Ã£o" style="text;html=1;align=center;verticalAlign=middle;resizable=0;points=[];autosize=1;strokeColor=none;fillColor=none;rotation=-90;" parent="1" vertex="1">
          <mxGeometry x="208.5" y="420" width="80" height="30" as="geometry" />
        </mxCell>
        <mxCell id="lg2mbPAJ2WqfPmgQV9Hu-22" value="FuncionÃ¡rio" style="rounded=0;whiteSpace=wrap;html=1;" parent="1" vertex="1">
          <mxGeometry x="535.13" y="360" width="120" height="50" as="geometry" />
        </mxCell>
        <mxCell id="lg2mbPAJ2WqfPmgQV9Hu-23" value="" style="line;strokeWidth=4;html=1;perimeter=backbonePerimeter;points=[];outlineConnect=0;rotation=90;" parent="1" vertex="1">
          <mxGeometry x="517.63" y="438.75" width="67.5" height="10" as="geometry" />
        </mxCell>
        <mxCell id="lg2mbPAJ2WqfPmgQV9Hu-24" value="" style="line;strokeWidth=4;html=1;perimeter=backbonePerimeter;points=[];outlineConnect=0;rotation=90;" parent="1" vertex="1">
          <mxGeometry x="546.38" y="445" width="82.5" height="10" as="geometry" />
        </mxCell>
        <mxCell id="lg2mbPAJ2WqfPmgQV9Hu-25" value="" style="line;strokeWidth=4;html=1;perimeter=backbonePerimeter;points=[];outlineConnect=0;rotation=90;" parent="1" vertex="1">
          <mxGeometry x="583.95" y="449.93" width="94.87" height="10" as="geometry" />
        </mxCell>
        <mxCell id="lg2mbPAJ2WqfPmgQV9Hu-26" value="" style="shape=waypoint;sketch=0;fillStyle=solid;size=6;pointerEvents=1;points=[];fillColor=none;resizable=0;rotatable=0;perimeter=centerPerimeter;snapToPoint=1;" parent="1" vertex="1">
          <mxGeometry x="531.13" y="487.25" width="20" height="20" as="geometry" />
        </mxCell>
        <mxCell id="lg2mbPAJ2WqfPmgQV9Hu-27" value="" style="shape=waypoint;sketch=0;fillStyle=solid;size=6;pointerEvents=1;points=[];fillColor=none;resizable=0;rotatable=0;perimeter=centerPerimeter;snapToPoint=1;" parent="1" vertex="1">
          <mxGeometry x="565.13" y="480" width="20" height="20" as="geometry" />
        </mxCell>
        <mxCell id="lg2mbPAJ2WqfPmgQV9Hu-28" value="" style="shape=waypoint;sketch=0;fillStyle=solid;size=6;pointerEvents=1;points=[];fillColor=none;resizable=0;rotatable=0;perimeter=centerPerimeter;snapToPoint=1;" parent="1" vertex="1">
          <mxGeometry x="608.5" y="490" width="20" height="20" as="geometry" />
        </mxCell>
        <mxCell id="lg2mbPAJ2WqfPmgQV9Hu-29" value="id_funcionario(fk)" style="text;html=1;align=center;verticalAlign=middle;resizable=0;points=[];autosize=1;strokeColor=none;fillColor=none;rotation=-90;" parent="1" vertex="1">
          <mxGeometry x="481.13" y="437.25" width="120" height="30" as="geometry" />
        </mxCell>
        <mxCell id="lg2mbPAJ2WqfPmgQV9Hu-30" value="nome" style="text;html=1;align=center;verticalAlign=middle;resizable=0;points=[];autosize=1;strokeColor=none;fillColor=none;rotation=-90;" parent="1" vertex="1">
          <mxGeometry x="550.13" y="432.5" width="50" height="30" as="geometry" />
        </mxCell>
        <mxCell id="lg2mbPAJ2WqfPmgQV9Hu-34" value="data_admissÃ£o" style="text;html=1;align=center;verticalAlign=middle;resizable=0;points=[];autosize=1;strokeColor=none;fillColor=none;rotation=-90;" parent="1" vertex="1">
          <mxGeometry x="568.5" y="437.25" width="100" height="30" as="geometry" />
        </mxCell>
        <mxCell id="lg2mbPAJ2WqfPmgQV9Hu-76" value="Consulta" style="rounded=0;whiteSpace=wrap;html=1;" parent="1" vertex="1">
          <mxGeometry x="328.63" y="540" width="110" height="50" as="geometry" />
        </mxCell>
        <mxCell id="lg2mbPAJ2WqfPmgQV9Hu-77" value="MÃ©dico" style="rounded=0;whiteSpace=wrap;html=1;" parent="1" vertex="1">
          <mxGeometry x="657.63" y="541.25" width="120" height="50" as="geometry" />
        </mxCell>
        <mxCell id="lg2mbPAJ2WqfPmgQV9Hu-78" value="" style="endArrow=none;html=1;rounded=0;" parent="1" edge="1">
          <mxGeometry width="50" height="50" relative="1" as="geometry">
            <mxPoint x="438.63" y="570" as="sourcePoint" />
            <mxPoint x="442.63" y="570" as="targetPoint" />
            <Array as="points">
              <mxPoint x="498.63" y="570" />
              <mxPoint x="470" y="570" />
            </Array>
          </mxGeometry>
        </mxCell>
        <mxCell id="lg2mbPAJ2WqfPmgQV9Hu-79" value="Faz" style="rhombus;whiteSpace=wrap;html=1;" parent="1" vertex="1">
          <mxGeometry x="493.63" y="530" width="86.5" height="80" as="geometry" />
        </mxCell>
        <mxCell id="lg2mbPAJ2WqfPmgQV9Hu-80" value="" style="endArrow=none;html=1;rounded=0;" parent="1" edge="1">
          <mxGeometry width="50" height="50" relative="1" as="geometry">
            <mxPoint x="581.63" y="569.5" as="sourcePoint" />
            <mxPoint x="657.63" y="570" as="targetPoint" />
            <Array as="points" />
          </mxGeometry>
        </mxCell>
        <mxCell id="lg2mbPAJ2WqfPmgQV9Hu-87" value="" style="line;strokeWidth=4;html=1;perimeter=backbonePerimeter;points=[];outlineConnect=0;rotation=90;" parent="1" vertex="1">
          <mxGeometry x="640.13" y="620" width="67.5" height="10" as="geometry" />
        </mxCell>
        <mxCell id="lg2mbPAJ2WqfPmgQV9Hu-88" value="" style="line;strokeWidth=4;html=1;perimeter=backbonePerimeter;points=[];outlineConnect=0;rotation=90;" parent="1" vertex="1">
          <mxGeometry x="668.88" y="626.25" width="82.5" height="10" as="geometry" />
        </mxCell>
        <mxCell id="lg2mbPAJ2WqfPmgQV9Hu-89" value="" style="line;strokeWidth=4;html=1;perimeter=backbonePerimeter;points=[];outlineConnect=0;rotation=90;" parent="1" vertex="1">
          <mxGeometry x="697.63" y="621.25" width="72.5" height="10" as="geometry" />
        </mxCell>
        <mxCell id="lg2mbPAJ2WqfPmgQV9Hu-90" value="" style="shape=waypoint;sketch=0;fillStyle=solid;size=6;pointerEvents=1;points=[];fillColor=none;resizable=0;rotatable=0;perimeter=centerPerimeter;snapToPoint=1;" parent="1" vertex="1">
          <mxGeometry x="652.63" y="646.25" width="20" height="20" as="geometry" />
        </mxCell>
        <mxCell id="lg2mbPAJ2WqfPmgQV9Hu-91" value="" style="shape=waypoint;sketch=0;fillStyle=solid;size=6;pointerEvents=1;points=[];fillColor=none;resizable=0;rotatable=0;perimeter=centerPerimeter;snapToPoint=1;" parent="1" vertex="1">
          <mxGeometry x="687.63" y="661.25" width="20" height="20" as="geometry" />
        </mxCell>
        <mxCell id="lg2mbPAJ2WqfPmgQV9Hu-92" value="" style="shape=waypoint;sketch=0;fillStyle=solid;size=6;pointerEvents=1;points=[];fillColor=none;resizable=0;rotatable=0;perimeter=centerPerimeter;snapToPoint=1;" parent="1" vertex="1">
          <mxGeometry x="711.38" y="642.5" width="20" height="20" as="geometry" />
        </mxCell>
        <mxCell id="lg2mbPAJ2WqfPmgQV9Hu-93" value="id_medico" style="text;html=1;align=center;verticalAlign=middle;resizable=0;points=[];autosize=1;strokeColor=none;fillColor=none;rotation=-90;" parent="1" vertex="1">
          <mxGeometry x="622.63" y="605" width="80" height="30" as="geometry" />
        </mxCell>
        <mxCell id="lg2mbPAJ2WqfPmgQV9Hu-94" value="nome" style="text;html=1;align=center;verticalAlign=middle;resizable=0;points=[];autosize=1;strokeColor=none;fillColor=none;rotation=-90;" parent="1" vertex="1">
          <mxGeometry x="672.63" y="613.75" width="50" height="30" as="geometry" />
        </mxCell>
        <mxCell id="lg2mbPAJ2WqfPmgQV9Hu-95" value="Crm" style="text;html=1;align=center;verticalAlign=middle;resizable=0;points=[];autosize=1;strokeColor=none;fillColor=none;rotation=-90;" parent="1" vertex="1">
          <mxGeometry x="697.63" y="606.25" width="50" height="30" as="geometry" />
        </mxCell>
        <mxCell id="lg2mbPAJ2WqfPmgQV9Hu-96" value="id_paciente(pk)" style="text;html=1;align=center;verticalAlign=middle;resizable=0;points=[];autosize=1;strokeColor=none;fillColor=none;rotation=-90;" parent="1" vertex="1">
          <mxGeometry x="286.13" y="612.5" width="110" height="30" as="geometry" />
        </mxCell>
        <mxCell id="lg2mbPAJ2WqfPmgQV9Hu-97" value="" style="line;strokeWidth=4;html=1;perimeter=backbonePerimeter;points=[];outlineConnect=0;rotation=90;" parent="1" vertex="1">
          <mxGeometry x="318.63" y="620" width="67.5" height="10" as="geometry" />
        </mxCell>
        <mxCell id="lg2mbPAJ2WqfPmgQV9Hu-98" value="id_consulta" style="text;html=1;align=center;verticalAlign=middle;resizable=0;points=[];autosize=1;strokeColor=none;fillColor=none;rotation=-90;" parent="1" vertex="1">
          <mxGeometry x="358.5" y="607.5" width="80" height="30" as="geometry" />
        </mxCell>
        <mxCell id="lg2mbPAJ2WqfPmgQV9Hu-99" value="" style="line;strokeWidth=4;html=1;perimeter=backbonePerimeter;points=[];outlineConnect=0;rotation=90;" parent="1" vertex="1">
          <mxGeometry x="378.63" y="617.5" width="65" height="10" as="geometry" />
        </mxCell>
        <mxCell id="lg2mbPAJ2WqfPmgQV9Hu-100" value="" style="shape=waypoint;sketch=0;fillStyle=solid;size=6;pointerEvents=1;points=[];fillColor=none;resizable=0;rotatable=0;perimeter=centerPerimeter;snapToPoint=1;" parent="1" vertex="1">
          <mxGeometry x="391.13" y="651.25" width="20" height="20" as="geometry" />
        </mxCell>
        <mxCell id="lg2mbPAJ2WqfPmgQV9Hu-101" value="Faz" style="rhombus;whiteSpace=wrap;html=1;" parent="1" vertex="1">
          <mxGeometry x="193.63" y="530" width="75" height="72.5" as="geometry" />
        </mxCell>
        <mxCell id="lg2mbPAJ2WqfPmgQV9Hu-102" value="" style="endArrow=none;html=1;rounded=0;" parent="1" edge="1">
          <mxGeometry width="50" height="50" relative="1" as="geometry">
            <mxPoint x="268.63" y="565.75" as="sourcePoint" />
            <mxPoint x="272.63" y="565.75" as="targetPoint" />
            <Array as="points">
              <mxPoint x="328.63" y="565.75" />
            </Array>
          </mxGeometry>
        </mxCell>
        <mxCell id="lg2mbPAJ2WqfPmgQV9Hu-103" value="" style="edgeStyle=orthogonalEdgeStyle;rounded=0;orthogonalLoop=1;jettySize=auto;html=1;" parent="1" source="lg2mbPAJ2WqfPmgQV9Hu-104" target="lg2mbPAJ2WqfPmgQV9Hu-101" edge="1">
          <mxGeometry relative="1" as="geometry" />
        </mxCell>
        <mxCell id="lg2mbPAJ2WqfPmgQV9Hu-104" value="Paciente" style="rounded=0;whiteSpace=wrap;html=1;" parent="1" vertex="1">
          <mxGeometry x="43.63" y="545" width="95" height="42.5" as="geometry" />
        </mxCell>
        <mxCell id="lg2mbPAJ2WqfPmgQV9Hu-105" value="" style="shape=waypoint;sketch=0;fillStyle=solid;size=6;pointerEvents=1;points=[];fillColor=none;resizable=0;rotatable=0;perimeter=centerPerimeter;snapToPoint=1;" parent="1" vertex="1">
          <mxGeometry x="331.13" y="660" width="20" height="20" as="geometry" />
        </mxCell>
        <mxCell id="lg2mbPAJ2WqfPmgQV9Hu-106" value="#id_medico(pk)" style="text;html=1;align=center;verticalAlign=middle;resizable=0;points=[];autosize=1;strokeColor=none;fillColor=none;rotation=-90;" parent="1" vertex="1">
          <mxGeometry x="318.63" y="616.25" width="110" height="30" as="geometry" />
        </mxCell>
        <mxCell id="lg2mbPAJ2WqfPmgQV9Hu-107" value="" style="line;strokeWidth=4;html=1;perimeter=backbonePerimeter;points=[];outlineConnect=0;rotation=90;" parent="1" vertex="1">
          <mxGeometry x="351.13" y="618.75" width="67.5" height="10" as="geometry" />
        </mxCell>
        <mxCell id="lg2mbPAJ2WqfPmgQV9Hu-108" value="" style="shape=waypoint;sketch=0;fillStyle=solid;size=6;pointerEvents=1;points=[];fillColor=none;resizable=0;rotatable=0;perimeter=centerPerimeter;snapToPoint=1;" parent="1" vertex="1">
          <mxGeometry x="366.13" y="660" width="20" height="20" as="geometry" />
        </mxCell>
        <mxCell id="lg2mbPAJ2WqfPmgQV9Hu-109" value="" style="line;strokeWidth=4;html=1;perimeter=backbonePerimeter;points=[];outlineConnect=0;rotation=90;" parent="1" vertex="1">
          <mxGeometry x="32.38" y="615" width="70" height="10" as="geometry" />
        </mxCell>
        <mxCell id="lg2mbPAJ2WqfPmgQV9Hu-110" value="#id_pacient(pk))" style="text;html=1;align=center;verticalAlign=middle;resizable=0;points=[];autosize=1;strokeColor=none;fillColor=none;rotation=-90;" parent="1" vertex="1">
          <mxGeometry x="2.3800000000000026" y="611.25" width="110" height="30" as="geometry" />
        </mxCell>
        <mxCell id="lg2mbPAJ2WqfPmgQV9Hu-111" value="" style="shape=waypoint;sketch=0;fillStyle=solid;size=6;pointerEvents=1;points=[];fillColor=none;resizable=0;rotatable=0;perimeter=centerPerimeter;snapToPoint=1;" parent="1" vertex="1">
          <mxGeometry x="47.38" y="661.25" width="20" height="20" as="geometry" />
        </mxCell>
        <mxCell id="lg2mbPAJ2WqfPmgQV9Hu-112" value="cpf" style="text;html=1;align=center;verticalAlign=middle;resizable=0;points=[];autosize=1;strokeColor=none;fillColor=none;rotation=-90;" parent="1" vertex="1">
          <mxGeometry x="88.63" y="608.75" width="40" height="30" as="geometry" />
        </mxCell>
        <mxCell id="lg2mbPAJ2WqfPmgQV9Hu-113" value="" style="line;strokeWidth=4;html=1;perimeter=backbonePerimeter;points=[];outlineConnect=0;rotation=90;" parent="1" vertex="1">
          <mxGeometry x="86.13" y="616.25" width="67.5" height="10" as="geometry" />
        </mxCell>
        <mxCell id="lg2mbPAJ2WqfPmgQV9Hu-114" value="" style="shape=waypoint;sketch=0;fillStyle=solid;size=6;pointerEvents=1;points=[];fillColor=none;resizable=0;rotatable=0;perimeter=centerPerimeter;snapToPoint=1;" parent="1" vertex="1">
          <mxGeometry x="98.5" y="651.25" width="20" height="20" as="geometry" />
        </mxCell>
        <mxCell id="lg2mbPAJ2WqfPmgQV9Hu-115" value="" style="line;strokeWidth=4;html=1;perimeter=backbonePerimeter;points=[];outlineConnect=0;rotation=90;" parent="1" vertex="1">
          <mxGeometry x="60.99999999999999" y="616.25" width="67.5" height="10" as="geometry" />
        </mxCell>
        <mxCell id="lg2mbPAJ2WqfPmgQV9Hu-116" value="" style="shape=waypoint;sketch=0;fillStyle=solid;size=6;pointerEvents=1;points=[];fillColor=none;resizable=0;rotatable=0;perimeter=centerPerimeter;snapToPoint=1;" parent="1" vertex="1">
          <mxGeometry x="68.63" y="645" width="20" height="20" as="geometry" />
        </mxCell>
        <mxCell id="lg2mbPAJ2WqfPmgQV9Hu-117" value="row 3" style="text;html=1;align=center;verticalAlign=middle;resizable=0;points=[];autosize=1;strokeColor=none;fillColor=none;rotation=-90;" parent="1" vertex="1">
          <mxGeometry x="61" y="607.5" width="50" height="30" as="geometry" />
        </mxCell>
        <mxCell id="lg2mbPAJ2WqfPmgQV9Hu-119" value="" style="line;strokeWidth=4;html=1;perimeter=backbonePerimeter;points=[];outlineConnect=0;rotation=90;" parent="1" vertex="1">
          <mxGeometry x="401.13" y="617.5" width="67.5" height="10" as="geometry" />
        </mxCell>
        <mxCell id="lg2mbPAJ2WqfPmgQV9Hu-120" value="" style="shape=waypoint;sketch=0;fillStyle=solid;size=6;pointerEvents=1;points=[];fillColor=none;resizable=0;rotatable=0;perimeter=centerPerimeter;snapToPoint=1;" parent="1" vertex="1">
          <mxGeometry x="416" y="646.25" width="20" height="20" as="geometry" />
        </mxCell>
        <mxCell id="lg2mbPAJ2WqfPmgQV9Hu-121" value="row 4" style="text;html=1;align=center;verticalAlign=middle;resizable=0;points=[];autosize=1;strokeColor=none;fillColor=none;rotation=-90;" parent="1" vertex="1">
          <mxGeometry x="398.63" y="607.5" width="50" height="30" as="geometry" />
        </mxCell>
        <mxCell id="lg2mbPAJ2WqfPmgQV9Hu-122" value="especialidade" style="text;html=1;align=center;verticalAlign=middle;resizable=0;points=[];autosize=1;strokeColor=none;fillColor=none;rotation=-90;" parent="1" vertex="1">
          <mxGeometry x="712.63" y="612.5" width="100" height="30" as="geometry" />
        </mxCell>
        <mxCell id="lg2mbPAJ2WqfPmgQV9Hu-123" value="" style="shape=waypoint;sketch=0;fillStyle=solid;size=6;pointerEvents=1;points=[];fillColor=none;resizable=0;rotatable=0;perimeter=centerPerimeter;snapToPoint=1;" parent="1" vertex="1">
          <mxGeometry x="757.63" y="660" width="20" height="20" as="geometry" />
        </mxCell>
        <mxCell id="lg2mbPAJ2WqfPmgQV9Hu-124" value="" style="line;strokeWidth=4;html=1;perimeter=backbonePerimeter;points=[];outlineConnect=0;rotation=90;" parent="1" vertex="1">
          <mxGeometry x="737.63" y="622.5" width="72.5" height="10" as="geometry" />
        </mxCell>
        <mxCell id="lg2mbPAJ2WqfPmgQV9Hu-125" style="edgeStyle=orthogonalEdgeStyle;rounded=0;orthogonalLoop=1;jettySize=auto;html=1;exitX=1;exitY=0.5;exitDx=0;exitDy=0;" parent="1" source="lg2mbPAJ2WqfPmgQV9Hu-126" target="lg2mbPAJ2WqfPmgQV9Hu-144" edge="1">
          <mxGeometry relative="1" as="geometry" />
        </mxCell>
        <mxCell id="lg2mbPAJ2WqfPmgQV9Hu-126" value="Pertence" style="rounded=0;whiteSpace=wrap;html=1;" parent="1" vertex="1">
          <mxGeometry x="316.28" y="760" width="104.87" height="50" as="geometry" />
        </mxCell>
        <mxCell id="lg2mbPAJ2WqfPmgQV9Hu-134" value="" style="edgeStyle=orthogonalEdgeStyle;rounded=0;orthogonalLoop=1;jettySize=auto;html=1;" parent="1" source="lg2mbPAJ2WqfPmgQV9Hu-135" edge="1">
          <mxGeometry relative="1" as="geometry">
            <mxPoint x="313.28" y="782.25" as="targetPoint" />
          </mxGeometry>
        </mxCell>
        <mxCell id="lg2mbPAJ2WqfPmgQV9Hu-135" value="FuncionÃ¡rio" style="rounded=0;whiteSpace=wrap;html=1;" parent="1" vertex="1">
          <mxGeometry x="163.28" y="761" width="95" height="42.5" as="geometry" />
        </mxCell>
        <mxCell id="lg2mbPAJ2WqfPmgQV9Hu-136" value="" style="line;strokeWidth=4;html=1;perimeter=backbonePerimeter;points=[];outlineConnect=0;rotation=90;" parent="1" vertex="1">
          <mxGeometry x="138.5" y="835" width="70" height="10" as="geometry" />
        </mxCell>
        <mxCell id="lg2mbPAJ2WqfPmgQV9Hu-137" value="#id_departamento(pk)" style="text;html=1;align=center;verticalAlign=middle;resizable=0;points=[];autosize=1;strokeColor=none;fillColor=none;rotation=-90;" parent="1" vertex="1">
          <mxGeometry x="466.13" y="857.5" width="140" height="30" as="geometry" />
        </mxCell>
        <mxCell id="lg2mbPAJ2WqfPmgQV9Hu-138" value="" style="line;strokeWidth=4;html=1;perimeter=backbonePerimeter;points=[];outlineConnect=0;rotation=90;" parent="1" vertex="1">
          <mxGeometry x="178.5" y="840.61" width="84.22" height="10" as="geometry" />
        </mxCell>
        <mxCell id="lg2mbPAJ2WqfPmgQV9Hu-139" value="" style="shape=waypoint;sketch=0;fillStyle=solid;size=6;pointerEvents=1;points=[];fillColor=none;resizable=0;rotatable=0;perimeter=centerPerimeter;snapToPoint=1;" parent="1" vertex="1">
          <mxGeometry x="200.78" y="880" width="20" height="20" as="geometry" />
        </mxCell>
        <mxCell id="lg2mbPAJ2WqfPmgQV9Hu-140" value="nome&lt;div&gt;&lt;br&gt;&lt;/div&gt;" style="text;html=1;align=center;verticalAlign=middle;resizable=0;points=[];autosize=1;strokeColor=none;fillColor=none;rotation=-90;" parent="1" vertex="1">
          <mxGeometry x="164.65" y="815" width="50" height="40" as="geometry" />
        </mxCell>
        <mxCell id="lg2mbPAJ2WqfPmgQV9Hu-141" value="" style="line;strokeWidth=4;html=1;perimeter=backbonePerimeter;points=[];outlineConnect=0;rotation=90;" parent="1" vertex="1">
          <mxGeometry x="157.13" y="831.25" width="67.5" height="10" as="geometry" />
        </mxCell>
        <mxCell id="lg2mbPAJ2WqfPmgQV9Hu-142" value="" style="shape=waypoint;sketch=0;fillStyle=solid;size=6;pointerEvents=1;points=[];fillColor=none;resizable=0;rotatable=0;perimeter=centerPerimeter;snapToPoint=1;" parent="1" vertex="1">
          <mxGeometry x="170.88" y="850.61" width="20" height="20" as="geometry" />
        </mxCell>
        <mxCell id="lg2mbPAJ2WqfPmgQV9Hu-143" value="Gerente" style="text;html=1;align=center;verticalAlign=middle;resizable=0;points=[];autosize=1;strokeColor=none;fillColor=none;rotation=-90;" parent="1" vertex="1">
          <mxGeometry x="567.63" y="840.61" width="70" height="30" as="geometry" />
        </mxCell>
        <mxCell id="lg2mbPAJ2WqfPmgQV9Hu-144" value="Departamento" style="rounded=0;whiteSpace=wrap;html=1;" parent="1" vertex="1">
          <mxGeometry x="516.28" y="760" width="120" height="50" as="geometry" />
        </mxCell>
        <mxCell id="lg2mbPAJ2WqfPmgQV9Hu-145" value="" style="line;strokeWidth=4;html=1;perimeter=backbonePerimeter;points=[];outlineConnect=0;rotation=90;" parent="1" vertex="1">
          <mxGeometry x="484.57" y="868.06" width="126.12" height="10" as="geometry" />
        </mxCell>
        <mxCell id="lg2mbPAJ2WqfPmgQV9Hu-146" value="" style="line;strokeWidth=4;html=1;perimeter=backbonePerimeter;points=[];outlineConnect=0;rotation=90;" parent="1" vertex="1">
          <mxGeometry x="540.13" y="845" width="82.5" height="10" as="geometry" />
        </mxCell>
        <mxCell id="lg2mbPAJ2WqfPmgQV9Hu-147" value="" style="line;strokeWidth=4;html=1;perimeter=backbonePerimeter;points=[];outlineConnect=0;rotation=90;" parent="1" vertex="1">
          <mxGeometry x="565.1" y="849.9300000000001" width="94.87" height="10" as="geometry" />
        </mxCell>
        <mxCell id="lg2mbPAJ2WqfPmgQV9Hu-148" value="" style="shape=waypoint;sketch=0;fillStyle=solid;size=6;pointerEvents=1;points=[];fillColor=none;resizable=0;rotatable=0;perimeter=centerPerimeter;snapToPoint=1;" parent="1" vertex="1">
          <mxGeometry x="526.13" y="930" width="20" height="20" as="geometry" />
        </mxCell>
        <mxCell id="lg2mbPAJ2WqfPmgQV9Hu-149" value="" style="shape=waypoint;sketch=0;fillStyle=solid;size=6;pointerEvents=1;points=[];fillColor=none;resizable=0;rotatable=0;perimeter=centerPerimeter;snapToPoint=1;" parent="1" vertex="1">
          <mxGeometry x="560.13" y="870" width="20" height="20" as="geometry" />
        </mxCell>
        <mxCell id="lg2mbPAJ2WqfPmgQV9Hu-150" value="" style="shape=waypoint;sketch=0;fillStyle=solid;size=6;pointerEvents=1;points=[];fillColor=none;resizable=0;rotatable=0;perimeter=centerPerimeter;snapToPoint=1;" parent="1" vertex="1">
          <mxGeometry x="589.65" y="890" width="20" height="20" as="geometry" />
        </mxCell>
        <mxCell id="lg2mbPAJ2WqfPmgQV9Hu-151" value="id_funcionario(pk)" style="text;html=1;align=center;verticalAlign=middle;resizable=0;points=[];autosize=1;strokeColor=none;fillColor=none;rotation=-90;" parent="1" vertex="1">
          <mxGeometry x="104.64999999999999" y="830.61" width="120" height="30" as="geometry" />
        </mxCell>
        <mxCell id="lg2mbPAJ2WqfPmgQV9Hu-152" value="nome" style="text;html=1;align=center;verticalAlign=middle;resizable=0;points=[];autosize=1;strokeColor=none;fillColor=none;rotation=-90;" parent="1" vertex="1">
          <mxGeometry x="546.28" y="832.5" width="50" height="30" as="geometry" />
        </mxCell>
        <mxCell id="lg2mbPAJ2WqfPmgQV9Hu-153" value="data_admissÃ£o" style="text;html=1;align=center;verticalAlign=middle;resizable=0;points=[];autosize=1;strokeColor=none;fillColor=none;rotation=-90;" parent="1" vertex="1">
          <mxGeometry x="161.13" y="831.25" width="100" height="30" as="geometry" />
        </mxCell>
        <mxCell id="lg2mbPAJ2WqfPmgQV9Hu-155" value="" style="line;strokeWidth=4;html=1;perimeter=backbonePerimeter;points=[];outlineConnect=0;rotation=90;" parent="1" vertex="1">
          <mxGeometry x="218.49999999999997" y="830" width="65" height="10" as="geometry" />
        </mxCell>
        <mxCell id="lg2mbPAJ2WqfPmgQV9Hu-156" value="cargo" style="text;html=1;align=center;verticalAlign=middle;resizable=0;points=[];autosize=1;strokeColor=none;fillColor=none;rotation=-90;" parent="1" vertex="1">
          <mxGeometry x="214.64999999999998" y="818.75" width="50" height="30" as="geometry" />
        </mxCell>
        <mxCell id="lg2mbPAJ2WqfPmgQV9Hu-157" value="" style="shape=waypoint;sketch=0;fillStyle=solid;size=6;pointerEvents=1;points=[];fillColor=none;resizable=0;rotatable=0;perimeter=centerPerimeter;snapToPoint=1;" parent="1" vertex="1">
          <mxGeometry x="233.49999999999997" y="850.61" width="20" height="20" as="geometry" />
        </mxCell>
        <mxCell id="lg2mbPAJ2WqfPmgQV9Hu-158" value="" style="line;strokeWidth=4;html=1;perimeter=backbonePerimeter;points=[];outlineConnect=0;rotation=90;" parent="1" vertex="1">
          <mxGeometry x="351.13" y="868.06" width="126.12" height="10" as="geometry" />
        </mxCell>
        <mxCell id="lg2mbPAJ2WqfPmgQV9Hu-159" value="" style="shape=waypoint;sketch=0;fillStyle=solid;size=6;pointerEvents=1;points=[];fillColor=none;resizable=0;rotatable=0;perimeter=centerPerimeter;snapToPoint=1;" parent="1" vertex="1">
          <mxGeometry x="396" y="930" width="20" height="20" as="geometry" />
        </mxCell>
        <mxCell id="lg2mbPAJ2WqfPmgQV9Hu-160" value="#id_departamento(pk)" style="text;html=1;align=center;verticalAlign=middle;resizable=0;points=[];autosize=1;strokeColor=none;fillColor=none;rotation=-90;" parent="1" vertex="1">
          <mxGeometry x="333.63" y="855" width="140" height="30" as="geometry" />
        </mxCell>
        <mxCell id="lg2mbPAJ2WqfPmgQV9Hu-161" value="id_funcionario(pk)" style="text;html=1;align=center;verticalAlign=middle;resizable=0;points=[];autosize=1;strokeColor=none;fillColor=none;rotation=-90;" parent="1" vertex="1">
          <mxGeometry x="261.13" y="835" width="120" height="30" as="geometry" />
        </mxCell>
        <mxCell id="lg2mbPAJ2WqfPmgQV9Hu-162" value="" style="line;strokeWidth=4;html=1;perimeter=backbonePerimeter;points=[];outlineConnect=0;rotation=90;" parent="1" vertex="1">
          <mxGeometry x="290.27" y="847.5" width="84.22" height="10" as="geometry" />
        </mxCell>
        <mxCell id="lg2mbPAJ2WqfPmgQV9Hu-163" value="row 4" style="text;html=1;align=center;verticalAlign=middle;resizable=0;points=[];autosize=1;strokeColor=none;fillColor=none;rotation=-90;" parent="1" vertex="1">
          <mxGeometry x="353.63" y="815" width="50" height="30" as="geometry" />
        </mxCell>
        <mxCell id="lg2mbPAJ2WqfPmgQV9Hu-164" value="" style="line;strokeWidth=4;html=1;perimeter=backbonePerimeter;points=[];outlineConnect=0;rotation=90;" parent="1" vertex="1">
          <mxGeometry x="346.13" y="845" width="82.5" height="10" as="geometry" />
        </mxCell>
        <mxCell id="lg2mbPAJ2WqfPmgQV9Hu-165" value="" style="line;strokeWidth=4;html=1;perimeter=backbonePerimeter;points=[];outlineConnect=0;rotation=90;" parent="1" vertex="1">
          <mxGeometry x="318.63" y="845" width="82.5" height="10" as="geometry" />
        </mxCell>
        <mxCell id="lg2mbPAJ2WqfPmgQV9Hu-166" value="" style="shape=waypoint;sketch=0;fillStyle=solid;size=6;pointerEvents=1;points=[];fillColor=none;resizable=0;rotatable=0;perimeter=centerPerimeter;snapToPoint=1;" parent="1" vertex="1">
          <mxGeometry x="368.63" y="847.5" width="20" height="20" as="geometry" />
        </mxCell>
        <mxCell id="lg2mbPAJ2WqfPmgQV9Hu-167" value="row 3" style="text;html=1;align=center;verticalAlign=middle;resizable=0;points=[];autosize=1;strokeColor=none;fillColor=none;rotation=-90;" parent="1" vertex="1">
          <mxGeometry x="323.5" y="817.5" width="50" height="30" as="geometry" />
        </mxCell>
        <mxCell id="lg2mbPAJ2WqfPmgQV9Hu-168" value="" style="shape=waypoint;sketch=0;fillStyle=solid;size=6;pointerEvents=1;points=[];fillColor=none;resizable=0;rotatable=0;perimeter=centerPerimeter;snapToPoint=1;" parent="1" vertex="1">
          <mxGeometry x="338.5" y="850" width="20" height="20" as="geometry" />
        </mxCell>
      </root>
    </mxGraphModel>
  </diagram>
</mxfile>
